<?xml version="1.0"?>
<svg xmlns="http://www.w3.org/2000/svg" viewBox="0 0 64 64" width="512" height="512"><g id="Outlines"><g><path d="M37.427,31a1,1,0,1,0,0,2,.366.366,0,0,1,.311.194,1,1,0,0,0,.838,1.139.983.983,0,0,0,.152.012,1,1,0,0,0,.987-.85,2.059,2.059,0,0,0-.5-1.671A2.365,2.365,0,0,0,37.427,31Z"/><path d="M36,23a4,4,0,0,0-3.626,2.336,8.193,8.193,0,0,0-3.927-4.231,1,1,0,1,0-.894,1.79,6.189,6.189,0,0,1,3.408,5.019A6.365,6.365,0,0,0,27.717,27a7.7,7.7,0,0,0-5.841,2.684,7.352,7.352,0,0,0-1.715,5.9,8.987,8.987,0,0,0,.849,2.671L25.3,46.838a3.79,3.79,0,0,0,6.462.643L32,47.167l.165.22A3.8,3.8,0,0,0,35.281,49a3.772,3.772,0,0,0,3.386-2.1l3.706-7.411a1,1,0,1,0-1.789-.894l-3.706,7.411a1.8,1.8,0,0,1-2.053.936,1.958,1.958,0,0,1-1.059-.757L32.8,44.9a1.037,1.037,0,0,0-1.6,0l-1.036,1.381a1.8,1.8,0,0,1-2.156.573,1.857,1.857,0,0,1-.917-.91L22.8,37.36a7,7,0,0,1-.661-2.078,5.283,5.283,0,0,1,1.256-4.295A5.7,5.7,0,0,1,27.717,29a4.389,4.389,0,0,1,2.646.9,2.732,2.732,0,0,0,3.294-.014A4.364,4.364,0,0,1,36.283,29a5.7,5.7,0,0,1,4.323,1.987,5.283,5.283,0,0,1,1.256,4.295,1,1,0,0,0,1.977.3,7.351,7.351,0,0,0-1.715-5.9,7.7,7.7,0,0,0-3.463-2.3A4.966,4.966,0,0,0,40,24a1,1,0,0,0-1-1Zm0,2h1.829A3.006,3.006,0,0,1,35,27H34A2,2,0,0,1,36,25Z"/><path d="M27.75,13.333l-.659,3.82a1,1,0,0,0,1.448,1.057L32,16.4l3.461,1.809a1,1,0,0,0,1.448-1.057l-.659-3.82,2.8-2.707a1,1,0,0,0-.553-1.708l-3.868-.56L32.9,4.879a1.041,1.041,0,0,0-1.792,0L29.376,8.358l-3.868.56a1,1,0,0,0-.553,1.708Zm2.431-3.07a1,1,0,0,0,.753-.544L32,7.571l1.066,2.148a1,1,0,0,0,.753.544l2.372.342-1.712,1.659a1,1,0,0,0-.29.888L34.6,15.5l-2.132-1.114a1,1,0,0,0-.926,0L29.405,15.5l.406-2.349a1,1,0,0,0-.29-.888l-1.712-1.659Z"/><path d="M43.279,18.732l-.535,3.1a1,1,0,0,0,1.448,1.057L47,21.42l2.808,1.467a1,1,0,0,0,1.448-1.057l-.535-3.1,2.265-2.194a1,1,0,0,0-.552-1.709L49.3,14.377l-1.4-2.821a1.041,1.041,0,0,0-1.792,0l-1.4,2.821-3.137.452a1,1,0,0,0-.552,1.709Zm2.229-2.45a1,1,0,0,0,.753-.546L47,14.248l.739,1.488a1,1,0,0,0,.753.546l1.64.237L48.95,17.663a1,1,0,0,0-.29.889l.28,1.626-1.477-.773a1.005,1.005,0,0,0-.926,0l-1.477.773.28-1.626a1,1,0,0,0-.29-.889l-1.182-1.144Z"/><path d="M13.279,18.732l-.535,3.1a1,1,0,0,0,1.448,1.057L17,21.42l2.808,1.467a1,1,0,0,0,1.448-1.057l-.535-3.1,2.265-2.194a1,1,0,0,0-.552-1.709L19.3,14.377l-1.4-2.821a1.041,1.041,0,0,0-1.792,0l-1.4,2.821-3.137.452a1,1,0,0,0-.552,1.709Zm2.229-2.45a1,1,0,0,0,.753-.546L17,14.248l.739,1.488a1,1,0,0,0,.753.546l1.64.237L18.95,17.663a1,1,0,0,0-.29.889l.28,1.626-1.477-.773a1.005,1.005,0,0,0-.926,0l-1.477.773.28-1.626a1,1,0,0,0-.29-.889l-1.182-1.144Z"/><path d="M51.583,26.748a1,1,0,0,0,.256,1.026l1.736,1.682-.41,2.374a1,1,0,0,0,1.448,1.057l2.154-1.125,2.153,1.125a1,1,0,0,0,1.448-1.057l-.409-2.374L61.7,27.774a1,1,0,0,0-.552-1.709l-2.406-.346-1.075-2.164a1.04,1.04,0,0,0-1.791,0L54.8,25.719l-2.4.346A1,1,0,0,0,51.583,26.748Zm4.019.876a1,1,0,0,0,.752-.546l.413-.83.413.831a1,1,0,0,0,.753.545l.908.131-.653.632a1,1,0,0,0-.29.888l.156.9-.825-.431a1,1,0,0,0-.925,0l-.824.431.156-.9a1,1,0,0,0-.29-.888l-.653-.632Z"/><path d="M4.041,29.456,3.632,31.83A1,1,0,0,0,5.08,32.887l2.153-1.125,2.154,1.125a1,1,0,0,0,1.448-1.057l-.41-2.374,1.736-1.682a1,1,0,0,0-.553-1.709L9.2,25.719,8.129,23.556a1,1,0,0,0-1.791,0L5.263,25.719l-2.406.346a1,1,0,0,0-.552,1.709Zm2.026-1.832a1,1,0,0,0,.753-.545l.413-.831.413.83a1,1,0,0,0,.752.546l.909.131-.653.632a1,1,0,0,0-.29.888l.156.9L7.7,29.747a1.007,1.007,0,0,0-.925,0l-.825.431.156-.9a1,1,0,0,0-.29-.888l-.653-.632Z"/><path d="M41.914,54.594a1,1,0,0,0-1.32-.508,21.19,21.19,0,0,1-17.188,0,1,1,0,0,0-.811,1.828,23.2,23.2,0,0,0,18.811,0A1,1,0,0,0,41.914,54.594Z"/><path d="M58.46,46.388,61.447,44.9a1,1,0,0,0-.1-1.832L56.16,41.117a9.008,9.008,0,0,0-6.319,0,8.908,8.908,0,0,0-5.674,6.938,29.441,29.441,0,0,1-24.334,0,8.909,8.909,0,0,0-5.673-6.938,9.008,9.008,0,0,0-6.319,0L2.649,43.063a1,1,0,0,0-.1,1.832L5.54,46.388,2.168,51.445A1,1,0,0,0,3,53a1.02,1.02,0,0,0,.351-.063L8.543,50.99a7,7,0,0,1,3.332-.384,1,1,0,0,0,.25-1.984,9.013,9.013,0,0,0-4.284.495l-2.289.859,2.28-3.421a1,1,0,0,0-.385-1.45L5.5,44.131,8.543,42.99a6.99,6.99,0,0,1,4.915,0,6.908,6.908,0,0,1,3.96,3.813c-.3-.17-.6-.329-.888-.511A1,1,0,0,0,15,47.14v3.565a8.951,8.951,0,0,0,4.23,7.633,24.154,24.154,0,0,0,19.149,2.8,1,1,0,0,0-.529-1.928,22.166,22.166,0,0,1-17.56-2.564A6.96,6.96,0,0,1,17,50.705V48.884a31.433,31.433,0,0,0,30,0v1.821a6.96,6.96,0,0,1-3.29,5.937,22.119,22.119,0,0,1-2.274,1.227,1,1,0,1,0,.855,1.809,24.249,24.249,0,0,0,2.48-1.341A8.948,8.948,0,0,0,49,50.705V47.14a1,1,0,0,0-1.53-.848c-.291.182-.592.341-.888.511a6.91,6.91,0,0,1,3.961-3.813,6.99,6.99,0,0,1,4.915,0L58.5,44.131l-1.948.974a1,1,0,0,0-.385,1.45l2.28,3.421-2.288-.859a9.025,9.025,0,0,0-4.285-.495,1,1,0,0,0,.25,1.984,7.068,7.068,0,0,1,3.333.384l5.191,1.947A1.02,1.02,0,0,0,61,53a1,1,0,0,0,.832-1.555Z"/></g></g></svg>
