<svg height="512" viewBox="0 0 512 512" width="512" xmlns="http://www.w3.org/2000/svg"><path d="m96 433.376v-101.461a8 8 0 0 0 -16 0v100.085h-32v-96a8 8 0 0 0 -16 0v97.376a23.977 23.977 0 0 0 -9.869 38.624 23.9 23.9 0 0 0 -6.131 16v24h96v-24a23.9 23.9 0 0 0 -6.131-16 23.977 23.977 0 0 0 -9.869-38.624zm0 62.624h-64v-8a8.009 8.009 0 0 1 8-8h48a8.009 8.009 0 0 1 8 8zm-8-32h-48a8 8 0 0 1 0-16h48a8 8 0 0 1 0 16z"/><path d="m496 456a24.039 24.039 0 0 0 -16-22.624v-97.376a8 8 0 0 0 -16 0v96h-32v-100.085a8 8 0 1 0 -16 0v101.461a23.977 23.977 0 0 0 -9.869 38.624 23.9 23.9 0 0 0 -6.131 16v24h96v-24a23.9 23.9 0 0 0 -6.131-16 23.9 23.9 0 0 0 6.131-16zm-16 40h-64v-8a8.009 8.009 0 0 1 8-8h48a8.009 8.009 0 0 1 8 8zm-8-32h-48a8 8 0 0 1 0-16h48a8 8 0 0 1 0 16z"/><path d="m193.649 192a8.027 8.027 0 0 0 -5.29 2c-4.349 3.85-8.939 7.569-13.63 11.06a8.007 8.007 0 0 0 -1.649 11.19 8 8 0 0 0 11.18 1.66l.01-.011c5.049-3.75 9.99-7.759 14.69-11.9a8.005 8.005 0 0 0 -5.311-14z"/><path d="m152.5 220.62a8.1 8.1 0 0 0 -3.78.949 8 8 0 0 0 3.8 15.051 8 8 0 0 0 7.04-11.79 8 8 0 0 0 -7.06-4.21z"/><path d="m359.479 236.62a8 8 0 1 0 -3.779-.95 8.054 8.054 0 0 0 3.779.95z"/><path d="m327.729 217.9a8 8 0 1 0 9.541-12.839c-4.7-3.491-9.28-7.21-13.63-11.06a8.006 8.006 0 1 0 -10.6 12c4.72 4.159 9.66 8.159 14.689 11.899z"/><path d="m480 312v-48.35a50.2 50.2 0 0 0 -.306-5.484 7.9 7.9 0 0 0 -1.244-6.878 58.5 58.5 0 0 0 -15.314-26.679c-10.568-10.751-24.953-18.4-41.6-22.117-66.893-14.958-108.511-55.532-127.365-78.387a8 8 0 1 0 -12.342 10.182c20.158 24.436 64.661 67.818 136.217 83.82 19.863 4.436 35.316 15.712 42.136 29.61a231.262 231.262 0 0 1 -68.772-13.547 8.005 8.005 0 0 0 -5.49 15.04 248.529 248.529 0 0 0 78.08 14.659v32c-55.939-1.8-107.4-22.476-145.628-58.679-33.538-31.765-54.372-73.605-54.372-109.19v-8a8 8 0 0 0 -16 0v8c0 35.585-20.834 77.425-54.371 109.191-38.229 36.209-89.69 56.879-145.629 58.68v-32a248.268 248.268 0 0 0 78.08-14.671 8 8 0 0 0 -5.49-15.03 231.262 231.262 0 0 1 -68.772 13.547c6.821-13.9 22.274-25.174 42.138-29.61 72.373-16.184 117.044-60.239 137.231-85.059a8 8 0 0 0 -12.413-10.1c-18.878 23.212-60.651 64.41-128.308 79.54-16.649 3.719-31.034 11.366-41.6 22.117a58.5 58.5 0 0 0 -15.316 26.683 7.9 7.9 0 0 0 -1.244 6.878 50.2 50.2 0 0 0 -.306 5.484v48.35h8c63.132 0 121.6-22.441 164.632-63.192 23.793-22.538 41.722-49.975 51.368-77.355 9.647 27.38 27.575 54.817 51.369 77.356 43.031 40.75 101.499 63.191 164.631 63.191z"/><path d="m235.21 88.66a124.792 124.792 0 0 0 18.71 7.06l2.07.56h.01l2.069-.551c.021-.009.071-.019.141-.04a128.982 128.982 0 0 0 29.4-12.75c8.941-5.379 15.83-11.189 21.071-17.79a45.156 45.156 0 0 0 10.319-28.349 34.971 34.971 0 0 0 -3.15-14.52 36.594 36.594 0 0 0 -8.46-11.7 40.578 40.578 0 0 0 -40.3-8.45 39.336 39.336 0 0 0 -11.09 5.87 39.349 39.349 0 0 0 -11.09-5.87 40.58 40.58 0 0 0 -40.3 8.45 36.5 36.5 0 0 0 -8.46 11.7 34.936 34.936 0 0 0 -3.15 14.52 45.177 45.177 0 0 0 10.319 28.349c7.311 9.161 17.741 16.851 31.891 23.511zm-19.7-66.37a23.959 23.959 0 0 1 16.429-6.29 23.653 23.653 0 0 1 17.991 8.12l6.03 7.01.04.05 6.069-7.06a23.655 23.655 0 0 1 17.991-8.12 23.959 23.959 0 0 1 16.43 6.29 19.866 19.866 0 0 1 6.51 14.51c-.021 6.62-2.2 12.48-6.86 18.41-7.36 9.39-19.531 15.9-26.12 18.96a122.949 122.949 0 0 1 -11.55 4.67c-.81.28-1.62.54-2.47.809a114.131 114.131 0 0 1 -24.57-11.159c-6.75-4.18-12.27-8.94-15.96-13.79-4.39-5.78-6.45-11.471-6.47-17.9a19.862 19.862 0 0 1 6.51-14.51z"/><path d="m315.166 82.521a8 8 0 0 0 4.175 10.515 161.7 161.7 0 0 1 84.174 84.909 8 8 0 1 0 14.744-6.213 175.435 175.435 0 0 0 -92.578-93.385 8 8 0 0 0 -10.515 4.174z"/><path d="m339.56 49.479.07.031a207.5 207.5 0 0 1 56.92 37.179 8 8 0 1 0 10.82-11.789 224.021 224.021 0 0 0 -61.37-40.07 8 8 0 0 0 -6.44 14.649z"/><path d="m459.72 197.859a8 8 0 1 0 15.67-3.219 222.018 222.018 0 0 0 -26.39-68.38 8 8 0 0 0 -13.78 8.13 206.354 206.354 0 0 1 24.5 63.469z"/><path d="m423.87 112.08a8.015 8.015 0 0 0 5.029-1.79 7.994 7.994 0 1 0 -12.989-7.04 7.992 7.992 0 0 0 7.96 8.83z"/><path d="m93.755 171.7a8 8 0 1 0 14.744 6.215 161.7 161.7 0 0 1 84.16-84.878 8 8 0 1 0 -6.34-14.689 175.444 175.444 0 0 0 -92.564 93.352z"/><path d="m82.59 110.97a8 8 0 1 0 -2.941-5.37 8 8 0 0 0 2.941 5.37z"/><path d="m109.42 89.37a7.984 7.984 0 0 0 5.43-2.13l.04-.03a207.525 207.525 0 0 1 56.8-37.4 8 8 0 0 0 -3.25-15.31 7.884 7.884 0 0 0 -3.239.689 223.691 223.691 0 0 0 -61.21 40.3 8 8 0 0 0 5.43 13.88z"/><path d="m42.689 204.939a8.426 8.426 0 0 0 1.591.161 8.014 8.014 0 0 0 7.829-6.43l.011-.061a206.539 206.539 0 0 1 24.239-63.509 8 8 0 1 0 -13.809-8.08 222.244 222.244 0 0 0 -26.12 68.49 8.008 8.008 0 0 0 6.259 9.429z"/></svg>